<svg width="1214" height="341" viewBox="0 0 1214 341" xmlns="http://www.w3.org/2000/svg"><title>Fill 1</title><path d="M1791.236 157.296l2.204-1.805c.513.414 1.26.894 1.732 1.497.109.142-.797.99-1.03.966-1.009-.11-1.942-.423-2.906-.658zm21.492-.302c.944-.468 2.1-1.393 2.768-1.289.908.134 1.441 1.068 2.131 1.661-.937.472-2.108 1.405-2.761 1.293-.915-.143-1.448-1.072-2.138-1.665zm-61.896 6.132c1.119.219 2.231.434 3.349.648-.588.726-1.005 1.856-1.802 2.062-.932.246-2.187-.315-3.305-.529.582-.73 1.17-1.456 1.758-2.181zm92.406-9.228c4.776-.912 9.547-1.823 14.322-2.74.501 1.336 1.018 2.67 1.52 4.006l-13.78 4.07c-.688-1.776-1.372-3.556-2.062-5.336zm-1143.282 170.8c-1.153.543-2.328 1.445-3.43 1.49-.817.026-1.54-1.07-2.304-1.668 1.167-.509 2.35-1.35 3.497-1.417.768-.04 1.493 1.024 2.237 1.594zM53.092 159.902c-.47.782-.937 1.554-1.413 2.337-1.162-.234-2.318-.459-3.479-.687.48-.784.768-2.048 1.475-2.226.976-.236 2.26.346 3.417.576zm1269.214-132.61c-2.682-.71-4.58-2.566-6.789-3.965 1.424-.99 3.188-2.91 4.22-2.815 2.986.296 5.676 1.398 10.845 2.836-4.326 2.14-7.13 4.248-8.276 3.944zm-170.289-7.849c8.52-5.887 15.669-13.913 31.69-11.224-6.486 12.147-20.494 9.457-31.69 11.224zM264.804 269.06c-2.935-2.991-5.773-5.886-8.476-8.643-18.361-.149-36.574-.287-54.788-.43l-.113-3.926c19.507-3.526 38.947-7.418 58.536-10.433 10.322-1.592 12.8 4.616 15.43 9.49 3.085 5.704 2.7 5.826-10.589 13.942zm158.51-215.392c.227.099.416.177.638.271-.172.035-.342.059-.514.093.126.38.246.75-.125-.364zm277.044-2.13c-8.868-4.876-14.744-8.112-21.57-11.863 18.371-6.132 21.33-4.65 21.57 11.863zm36.738 1.528c14.287 1.48 29.875-.58 44.873-.89 5.426-.114 10.787.382 18.084.674-7.368 7.91-13.209 14.19-19.959 21.438-11.624.023-22.412.264-33.08-.02-7.117-.191-11.834 1.36-17.16 5.497-11.273 8.736-25.859 9.97-39.028 4.575-17.919-7.342-19.686-7.083-40.078 2.94-3.629 1.786-8.602 2.181-18.044 4.418 5.77-5.997 8.362-8.688 11.429-11.869-2.125-.24-4.182-.96-5.788-.556-8.112 2.06-16.27 4.937-24.392-2.218 14.424-2.53 26.27-5 38.23-6.607 17.174-2.31 33.583-3.659 49.242-12.54 8.529-4.828 22.535-6.2 35.67-4.842zm76.957-35.042c9.78-8.49 9.78-8.49 24.844-3.492l-24.844 3.492zm417.88 27.9a281.947 281.947 0 0 0 33.631 17.775c4.078 1.821 10.939 1.427 16.58 1.167 17.459-.801 34.982-2.485 52.393-2.956 16.938-.456 33.765.159 52.237.318-11.64 13.3-29.185 18.102-46.056 23.24-3.313 1.014-9.467.378-11.736-1.227-7.159-5.069-15.194-4.023-23.826-1.2-14.256 4.654-26.994.328-40.46.26-15.72-.07-31.56.017-47.352 1.144-4.903.344-10.776 3.752-14.551 6.724-6.757 5.305-14.153 7.364-23.576 7.423-7.17.051-14.511 1.166-21.764 1.862-2.177.206-4.774 1.225-6.464.803-29.086-7.304-61.265 2.478-90.986-1.02-5.172-.606-10.286-1.388-15.419-2.088.361-1.076.717-2.156 1.077-3.241 1.971-.518 4.372-1.77 5.854-1.461 15.003 3.188 25.425.16 35.383-10.122 4.505-4.66 16.318-6.947 25.258-8.956 9.771-2.194 20.213-3.897 30.07-3.923 17.612-.039 33.879-5.98 50.898-7.75 22.988-2.383 23.326-2.32 18.615-17.724 7.93-4.54 13.593-3.124 20.194.952zm226.767-3.2l-1.63-3.42c2.678-1.547 5.307-4.232 8.019-4.467 19.745-1.792 39.518-3.092 59.3-3.54-20.875 10.75-43.906 7.279-65.689 11.428zm111.456-28.948c10.494-7.916 23.977-8.29 34.473-7.375 9.627.832 17.478 6.886 26.818 10.958-11.97 10.994-26.69 6.433-38.103 11.158-7.744-4.924-15.001-9.54-23.188-14.741zm405.536-64.915c.872-.274 2.25.416 3.4.683-.343.9-.694 1.791-1.04 2.682-1.587-.363-3.178-.74-4.766-1.103.778-.794 1.373-1.95 2.406-2.262zM1650.446 6.276l-12.494 1.756c-.231-.977-.47-1.963-.7-2.934 4.167-.779 8.328-1.563 12.496-2.342l.698 3.52zm94.74-14.313a42560.552 42560.552 0 0 0-24.371 17.912c-5.632-2.126-11.136-4.202-19.346-7.304 14.918-5.155 25.513-10.863 43.716-10.608zm46.325.704c-11.05 3.963-20.903 7.507-31.276 11.223 2.974-14.105 11.599-17.387 31.276-11.223zm36.36-7.154c-.694 1.801-1.387 3.603-2.085 5.406-3.648-.884-7.345-1.708-10.866-2.77-.307-.099.643-2.564.892-2.578 4.036-.149 8.04-.074 12.058-.058zM1447.795 60.85c-.118.503-2.305.936-3.548 1.393-.76-.5-1.52-1-2.286-1.499 1.811-1.362 3.612-2.724 5.422-4.092.196 1.4.74 2.813.412 4.198zm-59.27 24.228c6.127-5.326 11.209-9.752 17.81-15.494 1.823 12.563 1.823 12.563-17.81 15.494zm265.727-43.122c-.942.55-1.881 1.085-2.83 1.626-.587-.602-1.83-1.3-1.608-1.77.307-.645 1.736-1.113 2.685-1.654.586.603 1.172 1.2 1.753 1.798zm95.723-10.29c-2.585 1.775-4.056 3.471-5.278 3.481-2.387.017-4.629-.907-6.936-1.44 1.402-1.369 2.666-3.648 4.249-3.88 2.131-.31 4.51.955 7.965 1.839zm-174.534 31.21c-4.708-.687-9.42-1.373-16.663-2.426 9.111-5.4 13.839-4.46 16.663 2.427zm-349.215 40.098c1.301-.34 3.203.768 6.6 1.728-3.407 1.943-5.365 3.269-7.63 4.146-.347.138-3.214-1.812-2.98-2.707.304-1.156 2.33-2.727 4.01-3.167zm-87.738 13.203c-.57.07-1.272.289-1.683.153-.383-.124-.454-.631-.659-.968.46-.269.913-.536 1.367-.804.327.54.65 1.085.975 1.62zM335.022 227.393c23.786-9.533 46.487-3.987 68.864-5.653 22.47-1.673 44.936-2.19 67.404-3.21-52.416 11.534-115.015 15.01-136.268 8.863zm987.88-126.107c-.833.692-1.584 1.451-2.567 2.007-.329.188-1.84-.149-1.82-.235.15-.79.514-1.583.816-2.373 1.184.204 2.378.403 3.571.6zM500.622 228.55c-2.565.204-4.446.358-6.328.508 1.399-.536 2.768-1.137 4.224-1.56.317-.092.937.448 2.104 1.052zM1600.54 85.85c-1.353 1.016-2.971 2.933-3.994 2.867-2.201-.145-4.106-1.315-6.14-2.065 1.175-1.121 2.352-2.233 4.46-4.234 2.257 1.366 3.966 2.402 5.674 3.432zm354.004-48.983c-2.649 1.653-4.654 3.414-5.35 3.23-2.256-.582-4.021-1.871-5.98-2.893 1.255-1.007 2.876-2.945 3.705-2.847 2.336.257 4.356 1.348 7.625 2.51zm145.734-20.152c-2.746 1.478-5.44 3.002-8.304 4.34-.236.106-1.636-1.072-2.486-1.653 2.679-1.662 5.35-3.335 8.029-4.997.913.766 1.837 1.54 2.76 2.31zm-755.25 111.397c.267.15-.07.794-.131 1.221h-1.93c.06-.427.136-.856.202-1.284.638.005 1.473-.154 1.86.063zm-74.95 17.853c-13.674 8.013-25.66 4.605-38.278 6.221 10.735-10.14 12.66-10.468 38.278-6.221zm18.374 1.166c-1.019.342-2.031.688-3.039 1.034-.04-.465-.342-1.019-.045-1.364.291-.344 1.195-.46 1.823-.68.42.344.838.678 1.26 1.01zm-44.768 10.867c-.061.64-.139 1.28-.2 1.92-2.176-.044-4.35-.078-6.511-.198-.1-.002 0-1.156.04-1.161 2.227-.23 4.447-.39 6.671-.561zm-469.676 53.89c.433-.751.865-2.103 1.295-2.138 1.625-.118 3.242.193 4.863.342-.856.684-1.715 1.375-2.57 2.065-1.2-.093-2.394-.181-3.588-.27zm390.608-61.693c4.272.304 8.538.598 15.777 1.107-8.33 5.301-12.775 4.776-15.777-1.107zm27.481 1.392c8.727-5.461 14.623-9.155 23.469-14.696.63 12.7-8.175 14.225-23.469 14.696zm-70.732 7.28c-2.385.214-4.855-2.481-7.29-3.849 2.926-1.906 5.833-5.216 8.77-5.451 8.177-.663 16.368-.042 24.556.078.065 1.763.126 3.532.19 5.295-8.74 1.385-17.47 3.14-26.226 3.926zm-46.832 2.723l15.201-2.136.78 2.98c-5.043.985-10.085 1.976-15.126 2.967-.283-1.267-.572-2.539-.855-3.811zm-773.778 67.68c.498-.582 1.002-1.165 1.5-1.747l1.075.879c-.305.356-.508.887-.942 1.031-.424.149-1.08-.088-1.633-.162zm795.413-120.126c.714-.722 1.428-1.44 2.143-2.157.69.551 1.483 1.062 1.965 1.705.13.18-.803 1.09-1.057 1.074-1.057-.081-2.042-.393-3.051-.622zm-555.15 77.101c.473-1.206 1.516-2.346 2.384-3.534 1.947.61 3.123.983 4.293 1.346-1.129 1.084-2.079 2.32-3.508 3.16-.426.248-3.26-.755-3.17-.972zm-40.835 6.11l-.448-2.143c3.251-.713 6.498-1.42 9.745-2.122.074 1.087.154 2.174.228 3.261l-9.525 1.004zm331.55-78.628c18.95-2.089 37.903-4.172 60.226-6.63-27.84 14.798-37.48 14.365-59.74 10.163-.16-1.18-.326-2.353-.486-3.533zm-76.09 5.648c14.082-2.507 28.635-3.6 42.915-4.217 5.28-.224 11.078 2.233 6.893 9.352-19.854-3.034-39.785-1.739-58.51 11.595-5.281-9.458-.891-15.016 8.702-16.73zm-89.931 15.865c-.554 1.233-1.113 2.462-1.666 3.695-5.06-.22-10.12-.439-18.02-.777 9.245-6.527 14.56-5.538 19.686-2.918zm45.745-9.676c.582-.73 1.914-1.408 3.074-1.676.521-.12 1.4.817 2.527 1.537-1.723.765-3.292 1.467-4.868 2.159-.284-.687-1.11-1.543-.733-2.02zM531.68 160.162c-2.16.179-4.348-1.474-6.235-2.177.672-1.396.882-2.246 1.12-2.264 17.315-1.524 33.2-5.675 46.53-14.658 17.759 2.68 35.08-2.458 52.582-5.142 2.124-.325 6.312 1.24 6.559 2.44.422 2.037-.68 4.942-2.717 6.634-2.228 1.85-6.094 3.063-9.488 3.99-28.963 7.923-58.761 8.791-88.351 11.177zm-60.661 10.047c-17.104-.393-33.315 1.702-49.64 6.109-12.043 3.255-24.012 4.802-38.082 1.744 7.76-7.583 16.283-10.737 26.768-11.902 23.099-2.561 46.197-5.16 69.282-7.891 10.759-1.272 19.096.657 28.169 7.14-14.166 1.991-25.677 5.047-36.497 4.8zM227.16 193.722c.037-1.187.075-2.369.111-3.56 5.057-.026 10.115-.052 16.583-.083-6.098 7.204-11.464 4.738-16.694 3.643zM1875.149-53.87c15.716-9.261 26.874-4.305 42.436-3.575-15.765 8.28-27.42 8.967-42.436 3.575zm-30.82 7.886a1482.93 1482.93 0 0 0-.118-5.049c5.738-.242 11.47-.488 17.207-.735.007 1.129.004 2.258.005 3.382l-17.093 2.402zM1361.94 11.262l13.215-2.877c.31.908.612 1.822.924 2.74l-13.16 3.042a368.64 368.64 0 0 0-.979-2.905zm241.429-39.013c.43-.212 2.652 1.5 4.63 2.67-2.201 1.333-3.746 2.915-5.336 3.06-1.58.139-3.197-1.171-4.802-1.845 1.792-1.344 3.413-2.869 5.508-3.885zM1348.043-8.053c.53-.623 1.064-1.247 1.594-1.866.388.306.77.613 1.155.93-.327.386-.54.95-1.005 1.104-.453.163-1.153-.094-1.744-.168zm-664.5 256.223c-15.696 6.796-27.661 10.752-41.514 10.09 11.057-6.176 22.473-11.476 41.515-10.09zm553.13-70.575c8.749-1.507 17.751-1.732 26.649-2.517-20.038 11.767-31.393 13.556-51.105 9.63 5.693-8.183 16.388-5.739 24.455-7.113zm54.063-1.262c-.793.64-1.827 1.878-2.336 1.824-1.643-.193-3.082-.869-4.593-1.357.79-.67 1.58-1.336 2.804-2.365 1.353.625 2.739 1.257 4.125 1.898zm-110.502 28.893c18.373 2.129 33.722-1.932 48.935-3.531 3.504-.367 6.908-2.519 10.392-2.84 38.464-3.598 76.947-6.993 115.414-10.46 6.53-.588 13.753-.129 19.483-2.1 19.13-6.578 38.168-7.602 57.89-6.735 7.618.34 15.816-1.888 23.757-2.56 9.01-.77 18.033-1.107 31.517-1.883-16.994 7.647-29.296 13.188-42.9 19.314 3.958 5.811 7.09 10.385 9.914 14.52 9.049.072 16.978.134 24.904.207-.009.942-.018 1.885-.037 2.828-12.188 4.641-24.382 9.272-37.484 14.255-6.118-2.648-2.019-7.333-1.075-11.517 2.142-9.534-3.539-14.356-16.961-12.511-25.152 3.461-50.746 2.07-75.648 9.873-8.458 2.653-18.653 2.13-28.06 2.83-30.885 2.28-61.816 5.023-92.636 6.322-9.065.375-17.823-3.466-26.954-5.424-7.243 3.784-14.838 9.672-23.765 11.768-6.276 1.473-14.358-2.206-21.435-6.168 7.202-1.32 14.41-2.637 23.598-4.326-4.31-7.424-12.596-9.757-22.266-11.383-9.119-1.532-19.816-2.208-21.408-11.41 14.082-2.775 27.37-5.248 40.565-8.034 12.655-2.662 20.814.228 27.022 8.316a55352.63 55352.63 0 0 1-22.762 10.65zm673.102-91.043c.947.343 1.732.87 2.567 1.338-.988.563-1.971 1.12-2.964 1.682-.392-.708-.917-1.392-1.069-2.14-.042-.224 1.267-.951 1.466-.88zm-225.165 34.99c-3.057.864-5.146 1.958-6.65 1.751-1.578-.223-2.606-1.694-3.875-2.613 1.741-.705 3.628-2.01 5.17-1.945 1.634.063 2.932 1.45 5.355 2.808zm350.322-51.639c-9.791 6.667-16.416 7.52-22.784 1.263 10.283-4.352 10.283-4.352 22.784-1.263zM1542.07 203.632c-.37 2.468-5.293 6.014-9.16 7.258-11.238 3.619-20.764-.773-31.696.304-.093-1.482-.193-2.969-.29-4.45 9.82-2.803 19.507-6.01 29.515-8.268 6.193-1.393 12.346.314 11.63 5.156zm-73.99-7.68c7.918-10.173 17.084-8.12 25.665-6.32-7.282 1.792-14.559 3.583-25.665 6.32zm95.737-14.505c7.536-.579 13.664-1.43 19.648-1.403 6.455.024 12.713 1.136 19.157 1.308 13.266.352 25.681 1.571 39.852-3.95 10.082-3.93 23.797-2.617 35.87-3.942 4.027-.44 8.204-1.483 11.934-2.838 11.144-4.076 19.481.043 27.735 2.747 5.272 1.732 2.63 8.084-4.096 9.322-17.845 3.302-35.796 6.698-53.802 8.596-22.396 2.353-44.89 3.068-67.337 4.879-7.067.565-14.12 2.35-23.592 3.99-1.881-6.537-3.346-11.638-5.37-18.71zm303.586-52.804c18.922-.62 22.787 4.932 13.146 17.167-.666.841-.583 1.917-1.247 4.368 8.516 1.114 15.893 2.085 23.319 3.065-1.11 5.64-4.859 8.32-11.782 8.384-2.836.022-6.353-1.601-8.248-.801-29.525 12.446-64.984 5.175-93.809 21.899-4.68-5.632-8.323-10.008-12.584-15.144-9.23 3.895-11.241 8.329-8.092 13.956 2.693 4.808 6.411 9.613-3.503 16.182-4.035-5.534-7.49-10.287-11.505-15.798a9271.069 9271.069 0 0 0-16.45 4.858c-1.406-1.224-3.488-2.16-3.706-3.38-2.429-13.857 4.447-21.667 23.928-25.116 12.702-2.25 23.294-6.41 33.925-11.868 5.398-2.771 13.513-4.325 19.992-4.242 14.25.177 26.963-.396 38.449-9.027 3.877-2.913 12.104-4.304 18.167-4.503zm71.248-1.784a978.72 978.72 0 0 0-3.53 2.629c-2.975-1.82-5.944-3.64-8.912-5.45 1.254-.94 2.503-1.873 3.757-2.807 2.894 1.878 5.787 3.75 8.685 5.628zm56.95 5.992l2.553 2.689c-4.232 3.737-7.662 9.468-12.863 10.815-14.38 3.736-29.52 6.831-44.334 7.883-11.528.82-14.647-5.339-11.928-12.031l66.572-9.356zm73.274-.804c-.76.619-1.626 1.19-2.465 1.773-.717-.531-1.426-1.07-2.128-1.604 1.14-.332 2.257-.75 3.423-.94.342-.06 1.217.738 1.17.77zm-209.654 48.411c-13.282 9.51-29.43 8.732-45.43 8.722 14.651-4.558 28.986-11.445 45.43-8.722zm-241.762 31.097c-2.353.184-4.727-2.237-7.096-3.468 2.3-1.713 4.86-4.891 6.849-4.873 6.391.059 12.572 1.292 18.835 2.074-.195.995-.39 1.984-.58 2.978-6.004 1.173-12 2.81-18.008 3.289zm-65.528 5.701c.125-1.309.245-2.612.37-3.92 4.237-.094 8.478-.193 12.72-.288.022.781.039 1.574.06 2.36l-13.15 1.848zm-232.593 27.853c-23.54-3.896-47.04 2.178-70.64 4.58-20.314 2.07-40.729 2.634-61.078 3.586-11.037.52-19.784-1.716-22.539-10.677 31.784-3.113 61.677-.366 92.137-7.757 19.894-4.83 40.36-4.512 59.802 4.043 9.232-3.765 20.256-7.28 29.579-12.365 8.463-4.619 16.214-4.637 24.826-3.735 17.224 1.809 34.445 3.592 52.099 5.44-21.607 9.457-40.46-3.238-62.505-.061-2.585 10.997-15.295 13.928-28.647 16.055-4.306.684-9.142 1.536-13.034.891zm-586.525 56.704c-1.524.836-3.18 2.334-4.542 2.316-1.42-.02-2.555-1.518-3.813-2.36 1.4-.898 2.8-1.795 4.768-3.05 1.464 1.264 2.523 2.182 3.587 3.094zm-127.438 7.224c-8.456-1.724-12.721-6.928-9.749-12.187 3.308-5.85 9.654-5.377 16.314-4.75 8.976.851 18.07 1.392 29.07 2.21-8.908 11.462-23.658 17.179-35.635 14.727zm97.804-17.907c-8.992 7.213-15.57 8.43-25.63 6.19 7.195-5.978 13.534-7.632 25.63-6.19zm412.733-66.084c2.205.067 4.176 1.144 7.122 2.09-2.599 1.97-4.761 4.03-5.23 3.887-2.115-.65-4.055-1.762-5.342-3.071-.293-.299 2.457-2.944 3.45-2.906zm-92.616 16.472c-6.132 5.771-16.508 6.263-22.195 1.734-1.842-1.46-2.925-4.817-1.652-6.507 4.858-6.465 13.181-10.186 23.314-11.144 10.587-1.002 22.895-5.832 31.668 3.726-4.72 1.646-7.842 3.502-10.893 3.664-8.873.478-14.689 3.287-20.242 8.527zm79.204-37.135c-5.776 3.284-11.552 6.564-20.692 11.764 1.568-11.727 10.107-12.53 20.692-11.764zM838.554 249.2c13.127-3.727 26.646-6.113 33.892-16.83 2.082-3.079 11.647-4.246 17.78-6.284.918.87 1.835 1.74 2.757 2.608-3.706 3.95-7.407 7.9-13.148 14.035 23.116-.394 44.014-.754 65.205-1.113-15.797 7.344-73.06 14.89-126.257 14.398 6.579-2.289 13.014-4.898 19.771-6.814zm-286.262 34.6l-.46-2.596c10.61-1.893 21.212-3.786 31.815-5.684l.98 3.736-32.335 4.545zM451.508 82.61c-2.356-.103-4.128-2.556-6.155-3.992 2.049-1.234 4.173-3.415 6.134-3.491 2.734-.113 5.345 1.355 10.391 2.852-5.143 2.427-8.056 4.724-10.37 4.631zm10.436-18.26c2.192-1.259 4.178-2.97 6.628-3.654 2.057-.577 4.659.04 7.02.132.065.691.123 1.4.185 2.102-4.09 1.034-8.183 2.075-12.277 3.116-.52-.57-1.037-1.13-1.556-1.695zM632.75 45.04c-7.228 1.131-14.492 2.194-21.76 3.012-15.68 1.775-29.329 5.02-40.414 15.09-10.727 9.752-20.954 9.82-33.658 3.24-2.487-1.292-5.291-2.31-7.978-3.463-13.238 13.837-25.041 17.274-46.647 12.855 7.616-7.746 14.829-15.086 21.877-22.256-25.861-4.861-52.606-5.186-80.218.42 4.448 1.885 7.794 3.302 12.553 5.32-10.732 3.354-20.138 4.728-26.536 8.565-20.57 12.328-44.14 14.631-68.245 16.906-16 1.511-31.979 3.804-47.924 6.076-7.647 1.09-14.412 3.395-13.385 10.074 13.412 3.547 13.67 3.976 24.049.368 17.245-6.005 33.822-5.01 50.733-3.648 2.302 10.802-16.55 10.691-18.898 18.09 3.515 2.621 6.904 5.156 10.292 7.692.212-.02.427-.055.638-.074.178 0 .35-.008.522-.006 7.957-4.166 8.353-4.07 18.535.12-8.817-.09-13.717-.138-18.535-.12-.262.142-.462.243-.745.387-.135-.101-.28-.211-.415-.307-23.121 2.245-43.922 13.565-67.684 12.895-19.737 10.145-41.228 6.029-61.941 8.229-7.201.766-17.016.008-21.112 2.93-15.085 10.742-32.34 9.015-49.541 10.419-16.7 1.364-35.347 1.156-49.524 6.709-14.371 5.622-27.035 7.506-41.636 7.849-13.789.317-27.682 1.344-41.517 2.483-4.275.35-8.52 2.097-12.777 3.208.248.461.498.933.741 1.401 45.894.388 91.785.788 137.674 1.177-7.26 3.812-14.402 4.586-21.425 5.876-4.948.91-11.628 1.592-14.252 3.979-11.551 10.47-23.33 6.944-35.155 3.822-6.938-1.827-13.068-5.493-25.261-.444 7.547 3.482 12.754 7.498 19.431 8.698 37.01 6.692 76.374 4.7 115.101 4.349 15.497-.145 24.02 2.322 24.689 12.993.35 5.623.753 11.239 1.021 15.154 19.5 1.776 35.47 3.782 51.762 4.567 15.815.747 31.962.244 49.15.302-6 11.362-7.957 22.47-16.805 29.824-9.512 7.904-25.505 12.295-38.634 18.197-6.107-1.228-11.955-2.408-18.052-3.637-8.223 5.547-16.844 10.199-23.218 15.951-8.565 7.729-17.026 8.72-28.783 6.236-13.523-2.852-27.996-3.907-42.062-1.167 5.255 4.17 8.61 8.18 13.71 10.537 6.476 3.005 15.146 7.632 21.51 6.382 19.705-3.873 35.272-1.099 45.196 4.454 13.396-1.882 22.336-3.337 31.312-4.343 8.06-.908 15.291-1.532 21.399-7.106 11.697-10.662 40.333-15.821 61.95-11.284-12.232 4.767-23.24 9.06-34.249 13.351.43 1.011.853 2.018 1.283 3.03 5.45-.238 11.732-1.633 16.134-.407 4.717 1.308 7.669 5.087 12.198 8.371 16.263-11.618 35.386-12.14 56.107-10.714-2.284 2.684-3.446 4.05-3.55 4.17 12.253 6.12 21.548.312 30.42-6.163 2.192 3.1 3.608 5.102 5.24 7.414 12.736-2.935 18.98-8.199 17.575-16.894-7.428-2.49-14.17-4.748-25.154-8.427 13.52-2.94 21.442-4.67 31.94-6.946-16.433-11.053-41.017 3.522-56.06-8.135 15.938-6.266 30.831-6.131 45.815-6.69 7.61-.28 17.793-.357 22.598-3.552 19.964-13.257 45.626-15.62 68.582-22.84 11.992-3.766 25.552-4.704 38.445-6.637 16.488-2.468 33.112-4.224 49.506-7.098 12.031-2.11 23.135-2.671 33.802 1.173-39.362 8.407-78.693 15.289-118.009 22.241-5.897 1.044-13.4.775-15.23 8.89 31.81-.026 63.478-9.318 98.134-5.64-15.149 8.872-28.467 8.559-41.229 9.97-12.376 1.364-26.559.183-31.7 12.22-.45 1.045-3.38 2.294-5.282 2.556-21.157 2.91-41.94 13.684-62.405 5.707-25.7 13.66-28.57 17.723-21.014 30.416 11.76-2.772 23.753-5.565 35.714-8.438 11.369-2.733 21.947-10.273 37.975-4.48-26.753 10.264-51.22 19.646-76.404 29.313 3.35.021 6.18.292 8.979.014 27.131-2.694 53.985-3.572 79.805.662 8.274 1.357 13.176-2.003 19.854-4.704 20.653-8.355 42.067-15.688 63.192-23.399.652-.233 1.488-.423 2.145-.359 14.375 1.362 29.403 1.634 42.893 4.512 10.558 2.249 19.04 1.072 28.164-2.86a12.334 12.334 0 0 1-.428-.296c-4.127.063-8.436.13-14.966.237 9.077-6.2 11.78-2.56 14.966-.237.39-.013.798-.013 1.189-.02-.255.119-.51.202-.761.315l.197.135c2.601-1.092 5.175-2.944 7.747-3.128 18.829-1.397 37.68-2.74 56.475-3.415 4.39-.157 8.365 2.683 12.882 3.46 6.487 1.111 13.295 1.598 19.967 2.349 2.599-8.103 15.929-4.508 20.186-9.184 6.837-7.522 13.42-2.566 20.43-1.721 3.132-3.755 5.722-6.864 8.317-9.973 6.187-7.426 12.33-9.988 20.57-5.714 8.503 4.409 17.866 2.92 26.38 2.085 9.437-.934 15.002.945 20.07 5.016.212-.13.436-.25.648-.379.223.105.38.182.598.277 5.012-.94 10.147-1.902 17.227-3.231-8.185 7.23-8.442 7.371-17.227 3.231-.366.072-.733.14-1.095.206-.052-.034-.099-.07-.15-.104a18224.45 18224.45 0 0 1-17.243 9.967c30.73-2.013 58.722-5.759 85.797-5.136 35.211.818 68.564-15.157 104.08-10.638 9.62 1.225 22.089-5.138 33.446-6.985 12.758-2.076 25.737-2.985 38.613-4.402 6.69 10.849 22.494 5.789 34.149 5.834 16.393.065 33.278-2.742 49.954-4.39 23.243-2.31 46.48-5.116 69.722-6.877 17.257-1.307 34.52-1.307 50.916-1.86 2.978-4.967 4.855-8.09 6.668-11.105 3.458-.063 5.725-.376 7.725-.093 26.423 3.794 53.19 5.135 81.039-.196 2.093-.398 4.356-.068 6.538-.239 33.514-2.666 67.036-5.16 100.548-8.098 24.598-2.16 49.18-4.915 74.897-7.515-3.173-3.417-5.143-5.535-7.084-7.625 9.35-6.344 18.305-4.34 24.67-1.167 12.053 6.012 25.27 4.86 39.269 2.763 69.98-10.468 139.964-20.92 214.437-32.051l-19.581-7.563c15.258-9.652 32.263-11.859 47.366-12.502 18.403-.778 35.762-3.479 53.532-7.09 5.693-1.155 13.096-.71 18.05.982 10.747 3.67 21.345 3.494 33.478 1.287 15.803-2.875 32.003-4.007 47.817-6.836 23.693-4.245 47.412-8.718 70.718-14.226 17.133-4.049 25.635-14.832 32.226-25.404 5.477-8.795-2.663-14.934-8.959-21.19-2.242-2.231-4.757-4.91-4.766-7.575-.058-10.312-2.21-21.161 2.318-30.937 3.948-8.512-.099-13.166-4.52-18.959-2.171-2.837-5.836-6.144-4.983-8.966 4.2-13.823 6.884-28.248 15.385-41.154 12.436-18.87 10.531-34.84-1.121-51.203-4.695-6.58-6.857-14.563-7.524-22.212-1.021-11.693-2.482-13.976-19.797-13.122-16 .806-29.569-1.365-42.173-7.352-6.476-3.074-15.334-4.798-23.617-5.182-21.312-.983-42.614-3.275-64.672 3.49-6.437 1.966-14.402.978-21.664 1.309-21.78.975-43.938-.12-65.24 3.355-34.238 5.586-67.827 9.726-101.766 7.02-5.368-.433-11.519.887-17.138 2.011-13.513 2.725-26.938 5.814-42.048 9.12-12.404 8.314-13.952 20.029-13.754 31.78-13.392 1.275-23.912 2.273-34.225 3.257-.274-1.953-1.083-3.314-.436-3.813 4.463-3.43 9.27-6.651 13.888-9.987 7.492-5.43 7.177-12.17-1.53-14.905-7.596-2.378-15.654-3.911-24.311 1.483-4.256 2.642-9.993 4.975-15.323 5.77-15.874 2.373-31.878 4.376-47.845 5.669-35.447 2.864-70.9 5.275-106.346 7.726-24.527 1.696-49.056 3.303-73.572 4.594-4.085.208-7.972-1.964-12.144-2-6.056-.053-12.895-.279-18.34 1.49-31.596 10.244-64.039 15.77-97.6 19.097-17.584 1.74-38.855-1.226-51.713 13.719-.809.94-4.021 1.145-6.153 1.487-20.652 3.378-41.313 6.69-61.943 10.148-.782.131-1.294 1.583-3.53 4.527 7.215-.25 13.067-.053 18.842-.734 18.53-2.191 36.269-4.047 46.426 9.3 2.481 3.259 9.4 4.691 15.057 7.331 4.937-13.863 10.073-16.791 27.134-15.623 6.287.428 14.12 1.032 17.814 3.775 10.85 8.048 25.473 6.636 39.753 6.683 7.97.02 15.964-.131 23.94-.149 12.85-.039 14.838 4.92 11.604 13.938-49.133.156-97.371.312-145.181.464-1.625-16.025-4.496-18.487-25.876-17.761-22.525.766-45.21 3.295-67.751 4.163-8.732.333-17.283-1.628-25.909-2.628.091-.06.196-.132.285-.202-.28.045-.579.082-.859.137a.438.438 0 0 0-.09-.014l.545.164c-19.888.74-39.81 1.721-59.634 2.024-4.576.068-10.521-1.282-12.966-3.537-8.134-7.509-19.52-6.013-31.296-4.583-16.542 2.006-33.072 4.104-49.626 5.761-2.877.284-5.857-1.388-9.918-2.459 13.449-12.817 34.495-7.477 48.614-15.934-15.015-1.262-29.777 1.43-44.626 3.166-17.278 2.015-35.975 6.133-51.607 3.902-17.52-2.494-34-1.464-51.371.261-3.569.35-8.52.91-10.556-.341-14.339-8.802-31.398-3.22-47.67-1.075-25.994 3.418-51.943 7.238-80.1 11.195 4.045 4.524 7.09 7.928 10.609 11.867-11.87 6.086-22.805 11.533-34.715 3.42 1.916-4.185 3.78-8.264 5.864-12.812-6.904 2.136-12.015 4.642-17.21 5.137-12.924 1.23-25.89 1.636-38.83 2.195-7.098.302-14.17.24-21.262.338-3.846 13.809-3.86 13.858-22.563 16.784z" fill="#DADEED" fill-rule="evenodd"/></svg>