<?xml version="1.0" standalone="no"?>
<!DOCTYPE svg PUBLIC "-//W3C//DTD SVG 20010904//EN"
 "http://www.w3.org/TR/2001/REC-SVG-20010904/DTD/svg10.dtd">
<svg version="1.0" xmlns="http://www.w3.org/2000/svg"
 width="50.000000pt" height="50.000000pt" viewBox="0 0 50.000000 50.000000"
 preserveAspectRatio="xMidYMid meet">

<g transform="translate(0.000000,50.000000) scale(0.100000,-0.100000)"
fill="#5ed03e" stroke="none">
<path d="M380 480 c-14 -5 -104 -30 -201 -56 l-177 -46 29 -107 c17 -63 29
-131 29 -168 l0 -63 220 0 220 0 0 129 c0 105 -3 130 -15 135 -8 3 -15 11 -15
18 0 32 -44 168 -54 167 -6 0 -22 -4 -36 -9z m40 -36 c0 -18 -24 -18 -39 0
-10 11 -8 15 6 18 23 6 33 0 33 -18z m-55 -14 c10 -11 26 -20 35 -20 23 0 35
-17 47 -67 l11 -43 -58 0 c-57 0 -59 1 -65 30 -8 36 -58 80 -92 80 -33 0 -83
-51 -83 -84 0 -24 -3 -26 -50 -26 -45 0 -50 -2 -51 -22 l-2 -23 -4 23 c-3 13
4 33 16 48 12 15 21 33 21 40 0 8 23 20 53 28 28 8 84 24 122 35 39 10 73 20
76 20 3 1 14 -8 24 -19z m-74 -69 c48 -49 40 -61 -41 -61 -68 0 -70 1 -70 25
0 28 35 65 63 65 10 0 32 -13 48 -29z m-221 1 c0 -10 -22 -32 -32 -32 -4 0 -8
9 -8 20 0 13 7 20 20 20 11 0 20 -4 20 -8z m50 -90 c0 -10 -22 -32 -32 -32 -4
0 -8 9 -8 20 0 13 7 20 20 20 11 0 20 -4 20 -8z m306 -17 c9 -13 24 -27 35
-30 16 -5 19 -16 19 -60 0 -45 -4 -59 -25 -80 -25 -25 -29 -25 -175 -25 -146
0 -150 0 -175 25 -21 21 -25 35 -25 80 0 44 3 55 19 60 11 3 26 17 35 30 16
24 19 25 146 25 127 0 130 -1 146 -25z m54 5 c0 -23 -10 -26 -28 -8 -18 18
-15 28 8 28 13 0 20 -7 20 -20z m-385 -190 c3 -5 1 -10 -4 -10 -6 0 -11 5 -11
10 0 6 2 10 4 10 3 0 8 -4 11 -10z m385 0 c0 -5 -5 -10 -11 -10 -5 0 -7 5 -4
10 3 6 8 10 11 10 2 0 4 -4 4 -10z"/>
<path d="M372 371 c-8 -4 -12 -19 -10 -32 4 -34 52 -34 56 0 3 20 -11 41 -28
41 -3 0 -11 -4 -18 -9z m28 -26 c0 -8 -4 -15 -10 -15 -5 0 -10 7 -10 15 0 8 5
15 10 15 6 0 10 -7 10 -15z"/>
<path d="M225 246 c-28 -29 -40 -66 -31 -102 10 -39 50 -74 86 -74 36 0 76 35
86 74 22 91 -79 164 -141 102z m100 -21 c16 -15 25 -36 25 -55 0 -36 -38 -80
-70 -80 -32 0 -70 44 -70 80 0 36 38 80 70 80 12 0 32 -11 45 -25z"/>
<path d="M110 186 c-27 -33 18 -72 48 -42 13 13 14 20 6 34 -15 23 -38 26 -54
8z m40 -21 c0 -8 -7 -15 -15 -15 -8 0 -15 7 -15 15 0 8 7 15 15 15 8 0 15 -7
15 -15z"/>
<path d="M400 186 c-27 -33 18 -72 48 -42 13 13 14 20 6 34 -15 23 -38 26 -54
8z m40 -21 c0 -8 -7 -15 -15 -15 -8 0 -15 7 -15 15 0 8 7 15 15 15 8 0 15 -7
15 -15z"/>
</g>
</svg>
